<svg width="40" height="40" viewBox="0 0 40 40" fill="none" xmlns="http://www.w3.org/2000/svg">
<path d="M20 0C23.9556 0 27.8224 1.17298 31.1114 3.37061C34.4004 5.56824 36.9638 8.69181 38.4776 12.3463C39.9913 16.0009 40.3874 20.0222 39.6157 23.9018C38.844 27.7814 36.9392 31.3451 34.1421 34.1421C31.3451 36.9392 27.7814 38.844 23.9018 39.6157C20.0222 40.3874 16.0009 39.9913 12.3463 38.4776C8.69181 36.9638 5.56824 34.4004 3.37061 31.1114C1.17298 27.8224 0 23.9556 0 20C0 14.6957 2.10714 9.60859 5.85786 5.85786C9.60859 2.10714 14.6957 0 20 0Z" fill="white" fill-opacity="0.2"/>
<path d="M25.9002 18.67C24.6774 18.67 23.4877 18.2727 22.5102 17.538V22.665C22.5417 23.2763 22.4486 23.8876 22.2364 24.4618C22.0242 25.0359 21.6974 25.5609 21.2759 26.0047C20.8543 26.4486 20.3469 26.802 19.7845 27.0435C19.222 27.2851 18.6163 27.4096 18.0042 27.4096C17.3921 27.4096 16.7864 27.2851 16.2239 27.0435C15.6615 26.802 15.154 26.4486 14.7325 26.0047C14.311 25.5609 13.9842 25.0359 13.772 24.4618C13.5598 23.8876 13.4666 23.2763 13.4982 22.665C13.4678 21.4392 13.9254 20.2515 14.7703 19.3629C15.6152 18.4742 16.7784 17.9574 18.0042 17.926C18.2475 17.9262 18.4904 17.9473 18.7302 17.989V20.7C18.505 20.6115 18.2652 20.566 18.0232 20.566C17.6005 20.5446 17.1811 20.6504 16.8191 20.8697C16.4572 21.0891 16.1692 21.4118 15.9925 21.7964C15.8158 22.181 15.7585 22.6097 15.8278 23.0272C15.8972 23.4447 16.0901 23.8319 16.3816 24.1387C16.6732 24.4455 17.05 24.6578 17.4635 24.7483C17.8769 24.8388 18.308 24.8033 18.7011 24.6464C19.0941 24.4895 19.4311 24.2184 19.6686 23.868C19.9061 23.5177 20.0331 23.1042 20.0332 22.681V12.5H22.5472C22.5249 13.4168 22.8674 14.305 23.4994 14.9695C24.1315 15.634 25.0014 16.0204 25.9182 16.044V18.668H25.9002" fill="white"/>
</svg>
